STARTFONT 2.1
FONT -Adobe-Courier-Medium-R-Normal--17-120-100-100-M-100-ISO8859-2
SIZE 12 100 100
FONTBOUNDINGBOX 10 17 0 -3
COMMENT $XConsortium: courR12.bdf,v 1.10 95/01/26 17:53:28 gildea Exp $
COMMENT 
COMMENT +
COMMENT  Copyright 1984-1989, 1994 Adobe Systems Incorporated.
COMMENT  Copyright 1988, 1994 Digital Equipment Corporation.
COMMENT
COMMENT  Adobe is a trademark of Adobe Systems Incorporated which may be
COMMENT  registered in certain jurisdictions.
COMMENT  Permission to use these trademarks is hereby granted only in
COMMENT  association with the images described in this file.
COMMENT
COMMENT  Permission to use, copy, modify, distribute and sell this software
COMMENT  and its documentation for any purpose and without fee is hereby
COMMENT  granted, provided that the above copyright notices appear in all
COMMENT  copies and that both those copyright notices and this permission
COMMENT  notice appear in supporting documentation, and that the names of
COMMENT  Adobe Systems and Digital Equipment Corporation not be used in
COMMENT  advertising or publicity pertaining to distribution of the software
COMMENT  without specific, written prior permission.  Adobe Systems and
COMMENT  Digital Equipment Corporation make no representations about the
COMMENT  suitability of this software for any purpose.  It is provided "as
COMMENT  is" without express or implied warranty.
COMMENT -
COMMENT  
COMMENT  Translation to ISO8859-2 by Cub Soft;  Petr.Kolar@vslib.cz
COMMENT  
STARTPROPERTIES 28
FOUNDRY "Adobe"
FAMILY_NAME "Courier"
WEIGHT_NAME "Medium"
SLANT "R"
SETWIDTH_NAME "Normal"
ADD_STYLE_NAME ""
PIXEL_SIZE 17
POINT_SIZE 120
RESOLUTION_X 100
RESOLUTION_Y 100
SPACING "M"
AVERAGE_WIDTH 100
CHARSET_REGISTRY "ISO8859"
CHARSET_ENCODING "2"
CAP_HEIGHT 10
X_HEIGHT 7
FONT_ASCENT 12
FONT_DESCENT 3
FACE_NAME "Courier"

STARTCHAR space
ENCODING 32
SWIDTH 600 0
DWIDTH 10 0
BBX 1 1 0 0
BITMAP
00
ENDCHAR
STARTCHAR exclam
ENCODING 33
SWIDTH 600 0
DWIDTH 10 0
BBX 1 11 4 0
BITMAP
80
80
80
80
80
80
80
80
00
80
80
ENDCHAR
STARTCHAR quotedbl
ENCODING 34
SWIDTH 600 0
DWIDTH 10 0
BBX 4 5 3 6
BITMAP
90
90
90
90
90
ENDCHAR
STARTCHAR numbersign
ENCODING 35
SWIDTH 600 0
DWIDTH 10 0
BBX 7 12 1 -1
BITMAP
28
28
28
28
fe
28
28
fe
28
28
28
28
ENDCHAR
STARTCHAR dollar
ENCODING 36
SWIDTH 600 0
DWIDTH 10 0
BBX 5 13 2 -1
BITMAP
20
20
78
88
80
80
70
08
08
88
f0
20
20
ENDCHAR
STARTCHAR percent
ENCODING 37
SWIDTH 600 0
DWIDTH 10 0
BBX 7 11 1 0
BITMAP
70
88
88
70
06
38
c0
1c
22
22
1c
ENDCHAR
STARTCHAR ampersand
ENCODING 38
SWIDTH 600 0
DWIDTH 10 0
BBX 6 9 1 0
BITMAP
30
48
40
20
64
94
88
88
74
ENDCHAR
STARTCHAR apostrophe
ENCODING 39
SWIDTH 600 0
DWIDTH 10 0
BBX 3 4 2 7
BITMAP
60
60
40
80
ENDCHAR
STARTCHAR parenleft
ENCODING 40
SWIDTH 600 0
DWIDTH 10 0
BBX 3 13 4 -2
BITMAP
20
40
40
40
80
80
80
80
80
40
40
40
20
ENDCHAR
STARTCHAR parenright
ENCODING 41
SWIDTH 600 0
DWIDTH 10 0
BBX 3 13 2 -2
BITMAP
80
40
40
40
20
20
20
20
20
40
40
40
80
ENDCHAR
STARTCHAR asterisk
ENCODING 42
SWIDTH 600 0
DWIDTH 10 0
BBX 7 6 1 5
BITMAP
10
10
fe
38
28
44
ENDCHAR
STARTCHAR plus
ENCODING 43
SWIDTH 600 0
DWIDTH 10 0
BBX 7 9 1 0
BITMAP
10
10
10
10
fe
10
10
10
10
ENDCHAR
STARTCHAR comma
ENCODING 44
SWIDTH 600 0
DWIDTH 10 0
BBX 3 4 2 -2
BITMAP
60
60
40
80
ENDCHAR
STARTCHAR minus
ENCODING 45
SWIDTH 600 0
DWIDTH 10 0
BBX 7 1 1 4
BITMAP
fe
ENDCHAR
STARTCHAR period
ENCODING 46
SWIDTH 600 0
DWIDTH 10 0
BBX 2 2 3 0
BITMAP
c0
c0
ENDCHAR
STARTCHAR slash
ENCODING 47
SWIDTH 600 0
DWIDTH 10 0
BBX 6 13 2 -2
BITMAP
04
04
08
08
10
10
10
20
20
40
40
80
80
ENDCHAR
STARTCHAR zero
ENCODING 48
SWIDTH 600 0
DWIDTH 10 0
BBX 7 11 1 0
BITMAP
38
44
44
82
82
82
82
82
44
44
38
ENDCHAR
STARTCHAR one
ENCODING 49
SWIDTH 600 0
DWIDTH 10 0
BBX 7 11 1 0
BITMAP
10
30
d0
10
10
10
10
10
10
10
fe
ENDCHAR
STARTCHAR two
ENCODING 50
SWIDTH 600 0
DWIDTH 10 0
BBX 7 11 1 0
BITMAP
38
44
82
02
02
04
08
10
20
42
fe
ENDCHAR
STARTCHAR three
ENCODING 51
SWIDTH 600 0
DWIDTH 10 0
BBX 7 11 1 0
BITMAP
38
44
82
04
18
04
02
02
82
44
38
ENDCHAR
STARTCHAR four
ENCODING 52
SWIDTH 600 0
DWIDTH 10 0
BBX 7 11 1 0
BITMAP
0c
0c
14
24
24
44
84
fe
04
04
1e
ENDCHAR
STARTCHAR five
ENCODING 53
SWIDTH 600 0
DWIDTH 10 0
BBX 7 11 1 0
BITMAP
7e
40
40
40
78
44
02
02
82
44
38
ENDCHAR
STARTCHAR six
ENCODING 54
SWIDTH 600 0
DWIDTH 10 0
BBX 7 11 2 0
BITMAP
1c
60
40
80
b8
c4
82
82
82
44
38
ENDCHAR
STARTCHAR seven
ENCODING 55
SWIDTH 600 0
DWIDTH 10 0
BBX 6 11 1 0
BITMAP
fc
84
04
08
08
08
10
10
10
20
20
ENDCHAR
STARTCHAR eight
ENCODING 56
SWIDTH 600 0
DWIDTH 10 0
BBX 6 11 2 0
BITMAP
30
48
84
84
78
48
84
84
84
48
30
ENDCHAR
STARTCHAR nine
ENCODING 57
SWIDTH 600 0
DWIDTH 10 0
BBX 7 11 1 0
BITMAP
38
44
82
82
46
3a
02
02
04
0c
70
ENDCHAR
STARTCHAR colon
ENCODING 58
SWIDTH 600 0
DWIDTH 10 0
BBX 2 7 3 0
BITMAP
c0
c0
00
00
00
c0
c0
ENDCHAR
STARTCHAR semicolon
ENCODING 59
SWIDTH 600 0
DWIDTH 10 0
BBX 3 9 2 -2
BITMAP
60
60
00
00
00
60
60
40
80
ENDCHAR
STARTCHAR less
ENCODING 60
SWIDTH 600 0
DWIDTH 10 0
BBX 8 9 1 0
BITMAP
01
06
18
60
80
60
18
06
01
ENDCHAR
STARTCHAR equal
ENCODING 61
SWIDTH 600 0
DWIDTH 10 0
BBX 8 4 1 3
BITMAP
ff
00
00
ff
ENDCHAR
STARTCHAR greater
ENCODING 62
SWIDTH 600 0
DWIDTH 10 0
BBX 8 9 1 0
BITMAP
80
60
18
06
01
06
18
60
80
ENDCHAR
STARTCHAR question
ENCODING 63
SWIDTH 600 0
DWIDTH 10 0
BBX 6 10 2 0
BITMAP
78
84
84
04
18
20
20
00
20
20
ENDCHAR
STARTCHAR at
ENCODING 64
SWIDTH 600 0
DWIDTH 10 0
BBX 9 12 0 -1
BITMAP
3e00
4100
4100
8080
9c80
a480
a480
a480
9f00
4000
4100
3e00
ENDCHAR
STARTCHAR A
ENCODING 65
SWIDTH 600 0
DWIDTH 10 0
BBX 9 10 0 0
BITMAP
7800
1400
1400
2200
2200
2200
3e00
4100
4100
e380
ENDCHAR
STARTCHAR B
ENCODING 66
SWIDTH 600 0
DWIDTH 10 0
BBX 8 10 1 0
BITMAP
fc
42
41
42
7c
42
41
41
42
fc
ENDCHAR
STARTCHAR C
ENCODING 67
SWIDTH 600 0
DWIDTH 10 0
BBX 8 10 1 0
BITMAP
1d
63
41
80
80
80
80
41
63
1c
ENDCHAR
STARTCHAR D
ENCODING 68
SWIDTH 600 0
DWIDTH 10 0
BBX 8 10 1 0
BITMAP
f8
46
42
41
41
41
41
42
46
f8
ENDCHAR
STARTCHAR E
ENCODING 69
SWIDTH 600 0
DWIDTH 10 0
BBX 7 10 1 0
BITMAP
fe
42
42
48
78
48
40
42
42
fe
ENDCHAR
STARTCHAR F
ENCODING 70
SWIDTH 600 0
DWIDTH 10 0
BBX 7 10 1 0
BITMAP
fe
42
42
48
78
48
40
40
40
f0
ENDCHAR
STARTCHAR G
ENCODING 71
SWIDTH 600 0
DWIDTH 10 0
BBX 9 10 1 0
BITMAP
1d00
6300
4100
8000
8000
8780
8100
4100
6100
1e00
ENDCHAR
STARTCHAR H
ENCODING 72
SWIDTH 600 0
DWIDTH 10 0
BBX 8 10 1 0
BITMAP
e7
42
42
42
7e
42
42
42
42
e7
ENDCHAR
STARTCHAR I
ENCODING 73
SWIDTH 600 0
DWIDTH 10 0
BBX 7 10 1 0
BITMAP
fe
10
10
10
10
10
10
10
10
fe
ENDCHAR
STARTCHAR J
ENCODING 74
SWIDTH 600 0
DWIDTH 10 0
BBX 8 10 1 0
BITMAP
3f
04
04
04
04
04
84
84
84
78
ENDCHAR
STARTCHAR K
ENCODING 75
SWIDTH 600 0
DWIDTH 10 0
BBX 8 10 1 0
BITMAP
f7
42
44
48
50
78
44
44
42
f3
ENDCHAR
STARTCHAR L
ENCODING 76
SWIDTH 600 0
DWIDTH 10 0
BBX 8 10 1 0
BITMAP
f8
20
20
20
20
20
21
21
21
ff
ENDCHAR
STARTCHAR M
ENCODING 77
SWIDTH 600 0
DWIDTH 10 0
BBX 9 10 0 0
BITMAP
c180
6300
6300
5500
5500
4900
4900
4100
4100
e380
ENDCHAR
STARTCHAR N
ENCODING 78
SWIDTH 600 0
DWIDTH 10 0
BBX 9 10 0 0
BITMAP
e780
6100
5100
5100
4900
4900
4500
4500
4300
f300
ENDCHAR
STARTCHAR O
ENCODING 79
SWIDTH 600 0
DWIDTH 10 0
BBX 8 10 1 0
BITMAP
3c
42
42
81
81
81
81
42
42
3c
ENDCHAR
STARTCHAR P
ENCODING 80
SWIDTH 600 0
DWIDTH 10 0
BBX 8 10 1 0
BITMAP
fc
42
41
41
42
7c
40
40
40
f8
ENDCHAR
STARTCHAR Q
ENCODING 81
SWIDTH 600 0
DWIDTH 10 0
BBX 8 12 1 -2
BITMAP
3c
42
42
81
81
81
81
42
42
3c
11
2e
ENDCHAR
STARTCHAR R
ENCODING 82
SWIDTH 600 0
DWIDTH 10 0
BBX 8 10 1 0
BITMAP
f8
44
42
42
44
78
44
42
42
f3
ENDCHAR
STARTCHAR S
ENCODING 83
SWIDTH 600 0
DWIDTH 10 0
BBX 7 10 1 0
BITMAP
3a
46
82
80
70
0c
02
82
c4
b8
ENDCHAR
STARTCHAR T
ENCODING 84
SWIDTH 600 0
DWIDTH 10 0
BBX 7 10 1 0
BITMAP
fe
92
92
92
10
10
10
10
10
7c
ENDCHAR
STARTCHAR U
ENCODING 85
SWIDTH 600 0
DWIDTH 10 0
BBX 9 10 0 0
BITMAP
f780
4100
4100
4100
4100
4100
4100
4100
2200
1c00
ENDCHAR
STARTCHAR V
ENCODING 86
SWIDTH 600 0
DWIDTH 10 0
BBX 9 10 0 0
BITMAP
e380
4100
4100
2200
2200
2200
1400
1400
0800
0800
ENDCHAR
STARTCHAR W
ENCODING 87
SWIDTH 600 0
DWIDTH 10 0
BBX 9 10 0 0
BITMAP
f780
4100
4900
4900
5500
5500
5500
2200
2200
2200
ENDCHAR
STARTCHAR X
ENCODING 88
SWIDTH 600 0
DWIDTH 10 0
BBX 9 10 0 0
BITMAP
e380
4100
2200
1400
0800
0800
1400
2200
4100
e380
ENDCHAR
STARTCHAR Y
ENCODING 89
SWIDTH 600 0
DWIDTH 10 0
BBX 9 10 0 0
BITMAP
e380
4100
2200
2200
1400
0800
0800
0800
0800
3e00
ENDCHAR
STARTCHAR Z
ENCODING 90
SWIDTH 600 0
DWIDTH 10 0
BBX 7 10 1 0
BITMAP
fe
82
84
08
10
10
20
42
82
fe
ENDCHAR
STARTCHAR bracketleft
ENCODING 91
SWIDTH 600 0
DWIDTH 10 0
BBX 3 13 4 -2
BITMAP
e0
80
80
80
80
80
80
80
80
80
80
80
e0
ENDCHAR
STARTCHAR backslash
ENCODING 92
SWIDTH 600 0
DWIDTH 10 0
BBX 6 13 2 -2
BITMAP
80
80
40
40
20
20
20
10
10
08
08
04
04
ENDCHAR
STARTCHAR bracketright
ENCODING 93
SWIDTH 600 0
DWIDTH 10 0
BBX 3 13 2 -2
BITMAP
e0
20
20
20
20
20
20
20
20
20
20
20
e0
ENDCHAR
STARTCHAR asciicircum
ENCODING 94
SWIDTH 600 0
DWIDTH 10 0
BBX 7 4 1 7
BITMAP
10
28
44
82
ENDCHAR
STARTCHAR underscore
ENCODING 95
SWIDTH 600 0
DWIDTH 10 0
BBX 10 1 0 -3
BITMAP
ffc0
ENDCHAR
STARTCHAR grave
ENCODING 96
SWIDTH 600 0
DWIDTH 10 0
BBX 3 3 2 8
BITMAP
80
40
20
ENDCHAR
STARTCHAR a
ENCODING 97
SWIDTH 600 0
DWIDTH 10 0
BBX 7 7 1 0
BITMAP
38
44
04
7c
84
84
7a
ENDCHAR
STARTCHAR b
ENCODING 98
SWIDTH 600 0
DWIDTH 10 0
BBX 8 10 0 0
BITMAP
c0
40
40
5c
62
41
41
41
62
dc
ENDCHAR
STARTCHAR c
ENCODING 99
SWIDTH 600 0
DWIDTH 10 0
BBX 7 7 1 0
BITMAP
3a
46
82
80
80
42
3c
ENDCHAR
STARTCHAR d
ENCODING 100
SWIDTH 600 0
DWIDTH 10 0
BBX 8 10 1 0
BITMAP
06
02
02
3a
46
82
82
82
46
3b
ENDCHAR
STARTCHAR e
ENCODING 101
SWIDTH 600 0
DWIDTH 10 0
BBX 7 7 1 0
BITMAP
38
44
82
fe
80
42
3c
ENDCHAR
STARTCHAR f
ENCODING 102
SWIDTH 600 0
DWIDTH 10 0
BBX 7 10 2 0
BITMAP
1c
22
20
fc
20
20
20
20
20
fc
ENDCHAR
STARTCHAR g
ENCODING 103
SWIDTH 600 0
DWIDTH 10 0
BBX 8 10 1 -3
BITMAP
3b
46
82
82
82
46
3a
02
02
3c
ENDCHAR
STARTCHAR h
ENCODING 104
SWIDTH 600 0
DWIDTH 10 0
BBX 8 10 1 0
BITMAP
c0
40
40
5c
62
42
42
42
42
e7
ENDCHAR
STARTCHAR i
ENCODING 105
SWIDTH 600 0
DWIDTH 10 0
BBX 7 10 1 0
BITMAP
10
10
00
70
10
10
10
10
10
fe
ENDCHAR
STARTCHAR j
ENCODING 106
SWIDTH 600 0
DWIDTH 10 0
BBX 5 13 2 -3
BITMAP
10
10
00
f8
08
08
08
08
08
08
08
08
f0
ENDCHAR
STARTCHAR k
ENCODING 107
SWIDTH 600 0
DWIDTH 10 0
BBX 8 10 1 0
BITMAP
c0
40
40
4f
44
48
70
48
44
cf
ENDCHAR
STARTCHAR l
ENCODING 108
SWIDTH 600 0
DWIDTH 10 0
BBX 7 10 1 0
BITMAP
70
10
10
10
10
10
10
10
10
fe
ENDCHAR
STARTCHAR m
ENCODING 109
SWIDTH 600 0
DWIDTH 10 0
BBX 9 7 0 0
BITMAP
db00
6d00
4900
4900
4900
4900
ed80
ENDCHAR
STARTCHAR n
ENCODING 110
SWIDTH 600 0
DWIDTH 10 0
BBX 8 7 1 0
BITMAP
dc
62
42
42
42
42
e7
ENDCHAR
STARTCHAR o
ENCODING 111
SWIDTH 600 0
DWIDTH 10 0
BBX 7 7 1 0
BITMAP
38
44
82
82
82
44
38
ENDCHAR
STARTCHAR p
ENCODING 112
SWIDTH 600 0
DWIDTH 10 0
BBX 8 10 1 -3
BITMAP
dc
62
41
41
41
62
5c
40
40
f0
ENDCHAR
STARTCHAR q
ENCODING 113
SWIDTH 600 0
DWIDTH 10 0
BBX 8 10 1 -3
BITMAP
3b
46
82
82
82
46
3a
02
02
0f
ENDCHAR
STARTCHAR r
ENCODING 114
SWIDTH 600 0
DWIDTH 10 0
BBX 8 7 1 0
BITMAP
ee
31
20
20
20
20
fc
ENDCHAR
STARTCHAR s
ENCODING 115
SWIDTH 600 0
DWIDTH 10 0
BBX 6 7 2 0
BITMAP
7c
84
80
78
04
84
f8
ENDCHAR
STARTCHAR t
ENCODING 116
SWIDTH 600 0
DWIDTH 10 0
BBX 8 9 0 0
BITMAP
20
20
fe
20
20
20
20
21
1e
ENDCHAR
STARTCHAR u
ENCODING 117
SWIDTH 600 0
DWIDTH 10 0
BBX 8 7 1 0
BITMAP
c6
42
42
42
42
46
3b
ENDCHAR
STARTCHAR v
ENCODING 118
SWIDTH 600 0
DWIDTH 10 0
BBX 9 7 0 0
BITMAP
f780
4100
2200
2200
1400
1400
0800
ENDCHAR
STARTCHAR w
ENCODING 119
SWIDTH 600 0
DWIDTH 10 0
BBX 9 7 0 0
BITMAP
e380
4100
4900
2a00
2a00
3600
2200
ENDCHAR
STARTCHAR x
ENCODING 120
SWIDTH 600 0
DWIDTH 10 0
BBX 7 7 1 0
BITMAP
ee
44
28
10
28
44
ee
ENDCHAR
STARTCHAR y
ENCODING 121
SWIDTH 600 0
DWIDTH 10 0
BBX 9 10 0 -3
BITMAP
e380
4100
2200
2200
1400
1400
0800
0800
1000
7800
ENDCHAR
STARTCHAR z
ENCODING 122
SWIDTH 600 0
DWIDTH 10 0
BBX 6 7 2 0
BITMAP
fc
88
10
20
40
84
fc
ENDCHAR
STARTCHAR braceleft
ENCODING 123
SWIDTH 600 0
DWIDTH 10 0
BBX 3 13 3 -2
BITMAP
20
40
40
40
40
40
80
40
40
40
40
40
20
ENDCHAR
STARTCHAR bar
ENCODING 124
SWIDTH 600 0
DWIDTH 10 0
BBX 1 12 4 -2
BITMAP
80
80
80
80
80
80
80
80
80
80
80
80
ENDCHAR
STARTCHAR braceright
ENCODING 125
SWIDTH 600 0
DWIDTH 10 0
BBX 3 13 3 -2
BITMAP
80
40
40
40
40
40
20
40
40
40
40
40
80
ENDCHAR
STARTCHAR asciitilde
ENCODING 126
SWIDTH 600 0
DWIDTH 10 0
BBX 7 3 1 3
BITMAP
60
92
0c
ENDCHAR
STARTCHAR nobreakspace
ENCODING 160
SWIDTH 600 0
DWIDTH 10 0
BBX 1 1 0 0
BITMAP
00
ENDCHAR
STARTCHAR Aogonek
ENCODING 161
SWIDTH 600 0
DWIDTH 10 0
BBX 9 13 0 -3
BITMAP
7800
1400
1400
2200
2200
2200
3e00
4100
4100
e380
0800
1000
0c00
ENDCHAR
STARTCHAR breve
ENCODING 162
SWIDTH 600 0
DWIDTH 10 0
BBX 5 3 2 8
BITMAP
88
88
70
ENDCHAR
STARTCHAR Lstroke
ENCODING 163
SWIDTH 600 0
DWIDTH 10 0
BBX 8 10 1 0
BITMAP
f8
20
20
28
30
60
a1
21
21
ff
ENDCHAR
STARTCHAR currency
ENCODING 164
SWIDTH 600 0
DWIDTH 10 0
BBX 7 7 1 1
BITMAP
82
7c
44
44
44
7c
82
ENDCHAR
STARTCHAR Lcaron
ENCODING 165
SWIDTH 660 0
DWIDTH 11 0
BBX 9 11 1 0
BITMAP
0180
f980
2100
2200
2000
2000
2000
2100
2100
2100
ff00
ENDCHAR
STARTCHAR Sacute
ENCODING 166
SWIDTH 600 0
DWIDTH 10 0
BBX 7 14 1 0
BITMAP
04
08
10
00
3a
46
82
80
70
0c
02
82
c4
b8
ENDCHAR
STARTCHAR section
ENCODING 167
SWIDTH 600 0
DWIDTH 10 0
BBX 9 12 0 -1
BITMAP
1f00
2100
2100
7000
8c00
8300
6080
1880
0700
4200
4200
7c00
ENDCHAR
STARTCHAR diaeresis
ENCODING 168
SWIDTH 600 0
DWIDTH 10 0
BBX 4 2 3 8
BITMAP
90
90
ENDCHAR
STARTCHAR Scaron
ENCODING 169
SWIDTH 600 0
DWIDTH 10 0
BBX 7 14 1 0
BITMAP
44
28
10
00
3a
46
82
80
70
0c
02
82
c4
b8
ENDCHAR
STARTCHAR Scedilla
ENCODING 170
SWIDTH 600 0
DWIDTH 10 0
BBX 7 14 1 -4
BITMAP
3a
46
82
80
70
0c
02
82
c4
b8
10
10
08
38
ENDCHAR
STARTCHAR Tcaron
ENCODING 171
SWIDTH 600 0
DWIDTH 10 0
BBX 7 14 1 0
BITMAP
44
28
10
00
fe
92
92
92
10
10
10
10
10
7c
ENDCHAR
STARTCHAR Zacute
ENCODING 172
SWIDTH 600 0
DWIDTH 10 0
BBX 7 14 1 0
BITMAP
04
08
10
00
fe
82
84
08
10
10
20
42
82
fe
ENDCHAR
STARTCHAR hyphen
ENCODING 173
SWIDTH 600 0
DWIDTH 10 0
BBX 7 1 1 4
BITMAP
fe
ENDCHAR
STARTCHAR Zcaron
ENCODING 174
SWIDTH 600 0
DWIDTH 10 0
BBX 7 14 1 0
BITMAP
44
28
10
00
fe
82
84
08
10
10
20
42
82
fe
ENDCHAR
STARTCHAR Zabovedot
ENCODING 175
SWIDTH 600 0
DWIDTH 10 0
BBX 7 13 1 0
BITMAP
10
10
00
fe
82
84
08
10
10
20
42
82
fe
ENDCHAR
STARTCHAR degree
ENCODING 176
SWIDTH 600 0
DWIDTH 10 0
BBX 5 5 2 6
BITMAP
70
88
88
88
70
ENDCHAR
STARTCHAR aogonek
ENCODING 177
SWIDTH 600 0
DWIDTH 10 0
BBX 7 10 1 -3
BITMAP
38
44
04
7c
84
84
7a
10
20
18
ENDCHAR
STARTCHAR ogonek
ENCODING 178
SWIDTH 600 0
DWIDTH 10 0
BBX 3 3 4 -3
BITMAP
40
80
60
ENDCHAR
STARTCHAR lstroke
ENCODING 179
SWIDTH 600 0
DWIDTH 10 0
BBX 7 10 1 0
BITMAP
70
10
14
18
30
50
10
10
10
fe
ENDCHAR
STARTCHAR acute
ENCODING 180
SWIDTH 600 0
DWIDTH 10 0
BBX 3 3 4 8
BITMAP
20
40
80
ENDCHAR
STARTCHAR lcaron
ENCODING 181
SWIDTH 660 0
DWIDTH 11 0
BBX 8 11 1 0
BITMAP
03
73
12
14
10
10
10
10
10
10
fe
ENDCHAR
STARTCHAR sacute
ENCODING 182
SWIDTH 600 0
DWIDTH 10 0
BBX 6 11 2 0
BITMAP
08
10
20
00
7c
84
80
78
04
84
f8
ENDCHAR
STARTCHAR caron
ENCODING 183
SWIDTH 600 0
DWIDTH 10 0
BBX 5 3 2 8
BITMAP
88
50
20
ENDCHAR
STARTCHAR cedilla
ENCODING 184
SWIDTH 600 0
DWIDTH 10 0
BBX 3 4 3 -3
BITMAP
40
40
20
e0
ENDCHAR
STARTCHAR scaron
ENCODING 185
SWIDTH 600 0
DWIDTH 10 0
BBX 6 11 2 0
BITMAP
88
50
20
00
7c
84
80
78
04
84
f8
ENDCHAR
STARTCHAR scedilla
ENCODING 186
SWIDTH 600 0
DWIDTH 10 0
BBX 6 11 2 -4
BITMAP
7c
84
80
78
04
84
f8
20
20
10
70
ENDCHAR
STARTCHAR tcaron
ENCODING 187
SWIDTH 600 0
DWIDTH 10 0
BBX 8 12 0 0
BITMAP
06
06
04
28
20
fe
20
20
20
20
21
1e
ENDCHAR
STARTCHAR zacute
ENCODING 188
SWIDTH 600 0
DWIDTH 10 0
BBX 6 11 2 0
BITMAP
08
10
20
00
fc
88
10
20
40
84
fc
ENDCHAR
STARTCHAR doubleacute
ENCODING 189
SWIDTH 600 0
DWIDTH 10 0
BBX 6 3 2 8
BITMAP
24
48
90
ENDCHAR
STARTCHAR zcaron
ENCODING 190
SWIDTH 600 0
DWIDTH 10 0
BBX 6 11 2 0
BITMAP
88
50
20
00
fc
88
10
20
40
84
fc
ENDCHAR
STARTCHAR zabovedot
ENCODING 191
SWIDTH 600 0
DWIDTH 10 0
BBX 6 10 2 0
BITMAP
20
20
00
fc
88
10
20
40
84
fc
ENDCHAR
STARTCHAR Racute
ENCODING 192
SWIDTH 600 0
DWIDTH 10 0
BBX 8 14 1 0
BITMAP
08
10
20
00
f8
44
42
42
44
78
44
42
42
f3
ENDCHAR
STARTCHAR Aacute
ENCODING 193
SWIDTH 600 0
DWIDTH 10 0
BBX 9 14 0 0
BITMAP
0400
0800
1000
0000
7800
1400
1400
2200
2200
2200
3e00
4100
4100
e380
ENDCHAR
STARTCHAR Acircumflex
ENCODING 194
SWIDTH 600 0
DWIDTH 10 0
BBX 9 14 0 0
BITMAP
0800
1400
2200
0000
7800
1400
1400
2200
2200
2200
3e00
4100
4100
e380
ENDCHAR
STARTCHAR Abreve
ENCODING 195
SWIDTH 600 0
DWIDTH 10 0
BBX 9 14 0 0
BITMAP
4400
4400
3800
0000
7800
1400
1400
2200
2200
2200
3e00
4100
4100
e380
ENDCHAR
STARTCHAR Adiaeresis
ENCODING 196
SWIDTH 600 0
DWIDTH 10 0
BBX 9 13 0 0
BITMAP
2400
2400
0000
7800
1400
1400
2200
2200
2200
3e00
4100
4100
e380
ENDCHAR
STARTCHAR Lacute
ENCODING 197
SWIDTH 600 0
DWIDTH 10 0
BBX 8 14 1 0
BITMAP
08
10
20
00
f8
20
20
20
20
20
21
21
21
ff
ENDCHAR
STARTCHAR Cacute
ENCODING 198
SWIDTH 600 0
DWIDTH 10 0
BBX 8 14 1 0
BITMAP
02
04
08
00
1d
63
41
80
80
80
80
41
63
1c
ENDCHAR
STARTCHAR Ccedilla
ENCODING 199
SWIDTH 600 0
DWIDTH 10 0
BBX 8 13 1 -3
BITMAP
1d
63
41
80
80
80
80
41
63
1c
10
08
38
ENDCHAR
STARTCHAR Ccaron
ENCODING 200
SWIDTH 600 0
DWIDTH 10 0
BBX 8 14 1 0
BITMAP
22
14
08
00
1d
63
41
80
80
80
80
41
63
1c
ENDCHAR
STARTCHAR Eacute
ENCODING 201
SWIDTH 600 0
DWIDTH 10 0
BBX 7 14 1 0
BITMAP
04
08
10
00
fe
42
42
48
78
48
40
42
42
fe
ENDCHAR
STARTCHAR Eogonek
ENCODING 202
SWIDTH 600 0
DWIDTH 10 0
BBX 7 13 1 -3
BITMAP
fe
42
42
48
78
48
40
42
42
fe
10
20
18
ENDCHAR
STARTCHAR Ediaeresis
ENCODING 203
SWIDTH 600 0
DWIDTH 10 0
BBX 7 13 1 0
BITMAP
24
24
00
fe
42
42
48
78
48
40
42
42
fe
ENDCHAR
STARTCHAR Ecaron
ENCODING 204
SWIDTH 600 0
DWIDTH 10 0
BBX 7 14 1 0
BITMAP
44
28
10
00
fe
42
42
48
78
48
40
42
42
fe
ENDCHAR
STARTCHAR Iacute
ENCODING 205
SWIDTH 600 0
DWIDTH 10 0
BBX 7 14 1 0
BITMAP
08
10
20
00
fe
10
10
10
10
10
10
10
10
fe
ENDCHAR
STARTCHAR Icircumflex
ENCODING 206
SWIDTH 600 0
DWIDTH 10 0
BBX 7 14 1 0
BITMAP
10
28
44
00
fe
10
10
10
10
10
10
10
10
fe
ENDCHAR
STARTCHAR Dcaron
ENCODING 207
SWIDTH 600 0
DWIDTH 10 0
BBX 8 14 1 0
BITMAP
44
28
10
00
f8
46
42
41
41
41
41
42
46
f8
ENDCHAR
STARTCHAR Dstroke
ENCODING 208
SWIDTH 600 0
DWIDTH 10 0
BBX 8 10 1 0
BITMAP
f8
46
42
41
f1
41
41
42
46
f8
ENDCHAR
STARTCHAR Nacute
ENCODING 209
SWIDTH 600 0
DWIDTH 10 0
BBX 9 14 0 0
BITMAP
0200
0400
0800
0000
e780
6100
5100
5100
4900
4900
4500
4500
4300
f300
ENDCHAR
STARTCHAR Ncaron
ENCODING 210
SWIDTH 600 0
DWIDTH 10 0
BBX 9 14 0 0
BITMAP
2200
1400
0800
0000
e780
6100
5100
5100
4900
4900
4500
4500
4300
f300
ENDCHAR
STARTCHAR Oacute
ENCODING 211
SWIDTH 600 0
DWIDTH 10 0
BBX 8 14 1 0
BITMAP
04
08
10
00
3c
42
42
81
81
81
81
42
42
3c
ENDCHAR
STARTCHAR Ocircumflex
ENCODING 212
SWIDTH 600 0
DWIDTH 10 0
BBX 8 14 1 0
BITMAP
08
14
22
00
3c
42
42
81
81
81
81
42
42
3c
ENDCHAR
STARTCHAR Odoubleacute
ENCODING 213
SWIDTH 600 0
DWIDTH 10 0
BBX 8 14 1 0
BITMAP
09
12
24
00
3c
42
42
81
81
81
81
42
42
3c
ENDCHAR
STARTCHAR Odiaeresis
ENCODING 214
SWIDTH 600 0
DWIDTH 10 0
BBX 8 13 1 0
BITMAP
24
24
00
3c
42
42
81
81
81
81
42
42
3c
ENDCHAR
STARTCHAR multiply
ENCODING 215
SWIDTH 600 0
DWIDTH 10 0
BBX 7 7 1 1
BITMAP
82
44
28
10
28
44
82
ENDCHAR
STARTCHAR Rcaron
ENCODING 216
SWIDTH 600 0
DWIDTH 10 0
BBX 8 14 1 0
BITMAP
88
50
20
00
f8
44
42
42
44
78
44
42
42
f3
ENDCHAR
STARTCHAR Uring
ENCODING 217
SWIDTH 600 0
DWIDTH 10 0
BBX 9 15 0 0
BITMAP
0c00
1200
1200
0c00
0000
f780
4100
4100
4100
4100
4100
4100
4100
2200
1c00
ENDCHAR
STARTCHAR Uacute
ENCODING 218
SWIDTH 600 0
DWIDTH 10 0
BBX 9 14 0 0
BITMAP
0200
0400
0800
0000
f780
4100
4100
4100
4100
4100
4100
4100
2200
1c00
ENDCHAR
STARTCHAR Udoubleacute
ENCODING 219
SWIDTH 600 0
DWIDTH 10 0
BBX 9 14 0 0
BITMAP
0480
0900
1200
0000
f780
4100
4100
4100
4100
4100
4100
4100
2200
1c00
ENDCHAR
STARTCHAR Udiaeresis
ENCODING 220
SWIDTH 600 0
DWIDTH 10 0
BBX 9 13 0 0
BITMAP
2200
2200
0000
f780
4100
4100
4100
4100
4100
4100
4100
2200
1c00
ENDCHAR
STARTCHAR Yacute
ENCODING 221
SWIDTH 600 0
DWIDTH 10 0
BBX 9 14 0 0
BITMAP
0200
0400
0800
0000
e380
4100
2200
2200
1400
0800
0800
0800
0800
3e00
ENDCHAR
STARTCHAR Tcedilla
ENCODING 222
SWIDTH 600 0
DWIDTH 10 0
BBX 7 14 1 -4
BITMAP
fe
92
92
92
10
10
10
10
10
7c
10
10
08
38
ENDCHAR
STARTCHAR ssharp
ENCODING 223
SWIDTH 600 0
DWIDTH 10 0
BBX 7 11 1 0
BITMAP
38
44
44
48
58
44
42
42
42
52
cc
ENDCHAR
STARTCHAR racute
ENCODING 224
SWIDTH 600 0
DWIDTH 10 0
BBX 8 11 1 0
BITMAP
04
08
10
00
ee
31
20
20
20
20
fc
ENDCHAR
STARTCHAR aacute
ENCODING 225
SWIDTH 600 0
DWIDTH 10 0
BBX 7 11 1 0
BITMAP
04
08
10
00
38
44
04
7c
84
84
7a
ENDCHAR
STARTCHAR acircumflex
ENCODING 226
SWIDTH 600 0
DWIDTH 10 0
BBX 7 11 1 0
BITMAP
10
28
44
00
38
44
04
7c
84
84
7a
ENDCHAR
STARTCHAR abreve
ENCODING 227
SWIDTH 600 0
DWIDTH 10 0
BBX 7 11 1 0
BITMAP
44
44
38
00
38
44
04
7c
84
84
7a
ENDCHAR
STARTCHAR adiaeresis
ENCODING 228
SWIDTH 600 0
DWIDTH 10 0
BBX 7 10 1 0
BITMAP
24
24
00
38
44
04
7c
84
84
7a
ENDCHAR
STARTCHAR lacute
ENCODING 229
SWIDTH 600 0
DWIDTH 10 0
BBX 7 14 1 0
BITMAP
08
10
20
00
70
10
10
10
10
10
10
10
10
fe
ENDCHAR
STARTCHAR cacute
ENCODING 230
SWIDTH 600 0
DWIDTH 10 0
BBX 7 11 1 0
BITMAP
04
08
10
00
3a
46
82
80
80
42
3c
ENDCHAR
STARTCHAR ccedilla
ENCODING 231
SWIDTH 600 0
DWIDTH 10 0
BBX 7 10 1 -3
BITMAP
3a
46
82
80
80
42
3c
10
08
38
ENDCHAR
STARTCHAR ccaron
ENCODING 232
SWIDTH 600 0
DWIDTH 10 0
BBX 7 11 1 0
BITMAP
44
28
10
00
3a
46
82
80
80
42
3c
ENDCHAR
STARTCHAR eacute
ENCODING 233
SWIDTH 600 0
DWIDTH 10 0
BBX 7 11 1 0
BITMAP
04
08
10
00
38
44
82
fe
80
42
3c
ENDCHAR
STARTCHAR eogonek
ENCODING 234
SWIDTH 600 0
DWIDTH 10 0
BBX 7 10 1 -3
BITMAP
38
44
82
fe
80
42
3c
10
20
18
ENDCHAR
STARTCHAR ediaeresis
ENCODING 235
SWIDTH 600 0
DWIDTH 10 0
BBX 7 10 1 0
BITMAP
24
24
00
38
44
82
fe
80
42
3c
ENDCHAR
STARTCHAR ecaron
ENCODING 236
SWIDTH 600 0
DWIDTH 10 0
BBX 7 11 1 0
BITMAP
44
28
10
00
38
44
82
fe
80
42
3c
ENDCHAR
STARTCHAR iacute
ENCODING 237
SWIDTH 600 0
DWIDTH 10 0
BBX 7 11 1 0
BITMAP
08
10
20
00
70
10
10
10
10
10
fe
ENDCHAR
STARTCHAR icircumflex
ENCODING 238
SWIDTH 600 0
DWIDTH 10 0
BBX 7 11 1 0
BITMAP
10
28
44
00
70
10
10
10
10
10
fe
ENDCHAR
STARTCHAR dcaron
ENCODING 239
SWIDTH 780 0
DWIDTH 13 0
BBX 11 11 1 0
BITMAP
0060
0660
0240
0280
3a00
4600
8200
8200
8200
4600
3b00
ENDCHAR
STARTCHAR dstroke
ENCODING 240
SWIDTH 660 0
DWIDTH 11 0
BBX 9 10 1 0
BITMAP
0200
0f80
0200
3a00
4600
8200
8200
8200
4600
3b00
ENDCHAR
STARTCHAR nacute
ENCODING 241
SWIDTH 600 0
DWIDTH 10 0
BBX 8 11 1 0
BITMAP
04
08
10
00
dc
62
42
42
42
42
e7
ENDCHAR
STARTCHAR ncaron
ENCODING 242
SWIDTH 600 0
DWIDTH 10 0
BBX 8 11 1 0
BITMAP
44
28
10
00
dc
62
42
42
42
42
e7
ENDCHAR
STARTCHAR oacute
ENCODING 243
SWIDTH 600 0
DWIDTH 10 0
BBX 7 11 1 0
BITMAP
08
10
20
00
38
44
82
82
82
44
38
ENDCHAR
STARTCHAR ocircumflex
ENCODING 244
SWIDTH 600 0
DWIDTH 10 0
BBX 7 11 1 0
BITMAP
10
28
44
00
38
44
82
82
82
44
38
ENDCHAR
STARTCHAR odoubleacute
ENCODING 245
SWIDTH 600 0
DWIDTH 10 0
BBX 8 11 1 0
BITMAP
09
12
24
00
38
44
82
82
82
44
38
ENDCHAR
STARTCHAR odiaeresis
ENCODING 246
SWIDTH 600 0
DWIDTH 10 0
BBX 7 10 1 0
BITMAP
44
44
00
38
44
82
82
82
44
38
ENDCHAR
STARTCHAR division
ENCODING 247
SWIDTH 600 0
DWIDTH 10 0
BBX 8 7 1 1
BITMAP
18
18
00
ff
00
18
18
ENDCHAR
STARTCHAR rcaron
ENCODING 248
SWIDTH 600 0
DWIDTH 10 0
BBX 8 11 1 0
BITMAP
44
28
10
00
ee
31
20
20
20
20
fc
ENDCHAR
STARTCHAR uring
ENCODING 249
SWIDTH 600 0
DWIDTH 10 0
BBX 8 12 1 0
BITMAP
18
24
24
18
00
c6
42
42
42
42
46
3b
ENDCHAR
STARTCHAR uacute
ENCODING 250
SWIDTH 600 0
DWIDTH 10 0
BBX 8 11 1 0
BITMAP
04
08
10
00
c6
42
42
42
42
46
3b
ENDCHAR
STARTCHAR udoubleacute
ENCODING 251
SWIDTH 600 0
DWIDTH 10 0
BBX 8 11 1 0
BITMAP
09
12
24
00
c6
42
42
42
42
46
3b
ENDCHAR
STARTCHAR udiaeresis
ENCODING 252
SWIDTH 600 0
DWIDTH 10 0
BBX 8 10 1 0
BITMAP
24
24
00
c6
42
42
42
42
46
3b
ENDCHAR
STARTCHAR yacute
ENCODING 253
SWIDTH 600 0
DWIDTH 10 0
BBX 9 14 0 -3
BITMAP
0200
0400
0800
0000
e380
4100
2200
2200
1400
1400
0800
0800
1000
7800
ENDCHAR
STARTCHAR tcedilla
ENCODING 254
SWIDTH 600 0
DWIDTH 10 0
BBX 8 13 0 -4
BITMAP
20
20
fe
20
20
20
20
21
1e
10
10
08
38
ENDCHAR
STARTCHAR abovedot
ENCODING 255
SWIDTH 600 0
DWIDTH 10 0
BBX 1 2 4 8
BITMAP
80
80
ENDCHAR
ENDFONT
